<?xml version="1.0" encoding="UTF-8" standalone="no"?>
<svg
   xmlns:dc="http://purl.org/dc/elements/1.1/"
   xmlns:cc="http://creativecommons.org/ns#"
   xmlns:rdf="http://www.w3.org/1999/02/22-rdf-syntax-ns#"
   xmlns:svg="http://www.w3.org/2000/svg"
   xmlns="http://www.w3.org/2000/svg"
   xmlns:sodipodi="http://sodipodi.sourceforge.net/DTD/sodipodi-0.dtd"
   xmlns:inkscape="http://www.inkscape.org/namespaces/inkscape"
   height="24"
   viewBox="0 0 72 24"
   width="72"
   version="1.1"
   id="svg1569"
   sodipodi:docname="options.svg"
   inkscape:version="0.92.3 (2405546, 2018-03-11)">
  <metadata
     id="metadata1575">
    <rdf:RDF>
      <cc:Work
         rdf:about="">
        <dc:format>image/svg+xml</dc:format>
        <dc:type
           rdf:resource="http://purl.org/dc/dcmitype/StillImage" />
        <dc:title />
      </cc:Work>
    </rdf:RDF>
  </metadata>
  <defs
     id="defs1573" />
  <sodipodi:namedview
     pagecolor="#ffffff"
     bordercolor="#666666"
     borderopacity="1"
     objecttolerance="10"
     gridtolerance="10"
     guidetolerance="10"
     inkscape:pageopacity="0"
     inkscape:pageshadow="2"
     inkscape:window-width="1863"
     inkscape:window-height="1025"
     id="namedview1571"
     showgrid="false"
     inkscape:zoom="9.8333333"
     inkscape:cx="34.156656"
     inkscape:cy="12"
     inkscape:window-x="57"
     inkscape:window-y="27"
     inkscape:window-maximized="1"
     inkscape:current-layer="layer1" />
  <g
     inkscape:groupmode="layer"
     id="layer1"
     inkscape:label="hinten">
    <circle
       style="fill:#f5f5f5;fill-opacity:1;stroke:none;stroke-width:1.33539093;stroke-linecap:round;stroke-linejoin:miter;stroke-miterlimit:4;stroke-dasharray:none;stroke-opacity:1"
       id="path2142"
       cy="12"
       cx="36"
       r="11" />
    <circle
       style="fill:#005aad;fill-opacity:1;stroke:none;stroke-width:1.33539093;stroke-linecap:round;stroke-linejoin:miter;stroke-miterlimit:4;stroke-dasharray:none;stroke-opacity:1"
       id="path2142-3"
       cy="12"
       cx="60"
       r="11" />
  </g>
  <g
     inkscape:groupmode="layer"
     id="layer2"
     inkscape:label="vorne">
    <path
       d="M 0,0 H 24 V 24 H 0 Z"
       id="path1565"
       inkscape:connector-curvature="0"
       style="fill:none" />
    <path
       d="m 18.876636,12.882 c 0.03701,-0.288 0.06477,-0.576 0.06477,-0.882 0,-0.306 -0.02776,-0.594 -0.06477,-0.882 l 1.952272,-1.485 c 0.175797,-0.135 0.22206,-0.378 0.111031,-0.576 L 19.089443,5.943 C 18.978412,5.745 18.728596,5.673 18.525042,5.745 l -2.303868,0.9 C 15.740045,6.285 15.221906,5.988 14.657505,5.763 L 14.305911,3.378 C 14.278153,3.162 14.083851,3 13.85254,3 H 10.151548 C 9.9202361,3 9.7259334,3.162 9.6981766,3.378 L 9.3465818,5.763 C 8.7821811,5.988 8.264042,6.294 7.7829131,6.645 l -2.3038672,-0.9 c -0.212807,-0.081 -0.4533715,0 -0.5644012,0.198 L 3.0641489,9.057 C 2.9438667,9.255 2.9993816,9.498 3.1751787,9.633 l 1.952273,1.485 c -0.03701,0.288 -0.064767,0.585 -0.064767,0.882 0,0.297 0.027758,0.594 0.064767,0.882 l -1.952273,1.485 c -0.1757972,0.135 -0.2220595,0.378 -0.1110298,0.576 l 1.8504958,3.114 c 0.1110297,0.198 0.3608467,0.27 0.5644012,0.198 l 2.3038672,-0.9 c 0.4811289,0.36 0.999268,0.657 1.5636687,0.882 l 0.3515948,2.385 C 9.7259334,20.838 9.9202361,21 10.151548,21 h 3.700992 c 0.231311,0 0.425613,-0.162 0.453371,-0.378 l 0.351594,-2.385 c 0.564401,-0.225 1.08254,-0.531 1.563669,-0.882 l 2.303868,0.9 c 0.212807,0.081 0.45337,0 0.564401,-0.198 l 1.850496,-3.114 c 0.111029,-0.198 0.06477,-0.441 -0.111031,-0.576 z m -6.874592,2.268 c -1.785729,0 -3.2383677,-1.413 -3.2383677,-3.15 0,-1.737 1.4526387,-3.15 3.2383677,-3.15 1.785728,0 3.238368,1.413 3.238368,3.15 0,1.737 -1.45264,3.15 -3.238368,3.15 z"
       id="path1567"
       inkscape:connector-curvature="0"
       style="stroke-width:0.91253668" />
    <path
       d="m 42.876635,12.882 c 0.03701,-0.288 0.06477,-0.576 0.06477,-0.882 0,-0.306 -0.02776,-0.594 -0.06477,-0.882 L 44.828909,9.633 C 45.004706,9.498 45.050968,9.255 44.939938,9.057 L 43.089443,5.943 C 42.978413,5.745 42.728596,5.673 42.525041,5.745 l -2.303867,0.9 C 39.740045,6.285 39.221906,5.988 38.657505,5.763 L 38.305911,3.378 C 38.278154,3.162 38.083852,3 37.852539,3 h -3.700991 c -0.231313,0 -0.425614,0.162 -0.453371,0.378 l -0.351595,2.385 c -0.564402,0.225 -1.08254,0.531 -1.563669,0.882 l -2.303868,-0.9 c -0.212806,-0.081 -0.453371,0 -0.5644,0.198 l -1.850496,3.114 c -0.120282,0.198 -0.06477,0.441 0.11103,0.576 l 1.952272,1.485 c -0.03701,0.288 -0.06477,0.585 -0.06477,0.882 0,0.297 0.02776,0.594 0.06477,0.882 l -1.952272,1.485 c -0.175798,0.135 -0.22206,0.378 -0.11103,0.576 l 1.850496,3.114 c 0.111029,0.198 0.360846,0.27 0.5644,0.198 l 2.303868,-0.9 c 0.481129,0.36 0.999267,0.657 1.563669,0.882 l 0.351595,2.385 C 33.72593,20.838 33.920235,21 34.151548,21 h 3.700991 c 0.231313,0 0.425615,-0.162 0.453372,-0.378 l 0.351594,-2.385 c 0.564401,-0.225 1.08254,-0.531 1.563669,-0.882 l 2.303867,0.9 c 0.212808,0.081 0.453372,0 0.564402,-0.198 l 1.850495,-3.114 c 0.11103,-0.198 0.06477,-0.441 -0.111029,-0.576 z m -6.874591,2.268 c -1.785729,0 -3.238368,-1.413 -3.238368,-3.15 0,-1.737 1.452639,-3.15 3.238368,-3.15 1.785728,0 3.238368,1.413 3.238368,3.15 0,1.737 -1.45264,3.15 -3.238368,3.15 z"
       id="path1567-7"
       inkscape:connector-curvature="0"
       style="stroke-width:0.91253656;fill:#005aad;fill-opacity:1" />
    <path
       d="m 66.876635,12.882 c 0.03702,-0.288 0.06477,-0.576 0.06477,-0.882 0,-0.306 -0.02776,-0.594 -0.06477,-0.882 l 1.952273,-1.485 c 0.175797,-0.135 0.222059,-0.378 0.11103,-0.576 L 67.089443,5.943 C 66.978412,5.745 66.728596,5.673 66.525041,5.745 l -2.303868,0.9 C 63.740045,6.285 63.221906,5.988 62.657504,5.763 L 62.30591,3.378 C 62.278153,3.162 62.083852,3 61.852539,3 H 58.151548 C 57.920235,3 57.725933,3.162 57.698176,3.378 L 57.346582,5.763 C 56.78218,5.988 56.264041,6.294 55.782913,6.645 l -2.303868,-0.9 c -0.212807,-0.081 -0.453371,0 -0.564401,0.198 l -1.850495,3.114 c -0.120283,0.198 -0.06477,0.441 0.111029,0.576 l 1.952273,1.485 c -0.03701,0.288 -0.06477,0.585 -0.06477,0.882 0,0.297 0.02776,0.594 0.06477,0.882 l -1.952273,1.485 c -0.175797,0.135 -0.222059,0.378 -0.111029,0.576 l 1.850495,3.114 c 0.11103,0.198 0.360847,0.27 0.564401,0.198 l 2.303868,-0.9 c 0.481128,0.36 0.999267,0.657 1.563669,0.882 l 0.351594,2.385 C 57.725933,20.838 57.920235,21 58.151548,21 h 3.700991 c 0.231313,0 0.425614,-0.162 0.453371,-0.378 l 0.351594,-2.385 c 0.564402,-0.225 1.082541,-0.531 1.563669,-0.882 l 2.303868,0.9 c 0.212808,0.081 0.453371,0 0.564402,-0.198 l 1.850495,-3.114 c 0.111029,-0.198 0.06477,-0.441 -0.11103,-0.576 z m -6.874591,2.268 c -1.78573,0 -3.238368,-1.413 -3.238368,-3.15 0,-1.737 1.452638,-3.15 3.238368,-3.15 1.785728,0 3.238367,1.413 3.238367,3.15 0,1.737 -1.452639,3.15 -3.238367,3.15 z"
       id="path1567-5"
       inkscape:connector-curvature="0"
       style="fill:#f5f5f5;fill-opacity:1;stroke-width:0.91253656" />
  </g>
</svg>
