<?xml version="1.0" encoding="UTF-8" standalone="no"?>
<svg
   xmlns:dc="http://purl.org/dc/elements/1.1/"
   xmlns:cc="http://creativecommons.org/ns#"
   xmlns:rdf="http://www.w3.org/1999/02/22-rdf-syntax-ns#"
   xmlns:svg="http://www.w3.org/2000/svg"
   xmlns="http://www.w3.org/2000/svg"
   xmlns:sodipodi="http://sodipodi.sourceforge.net/DTD/sodipodi-0.dtd"
   xmlns:inkscape="http://www.inkscape.org/namespaces/inkscape"
   height="24"
   viewBox="0 0 24 24"
   width="24"
   version="1.1"
   id="svg4"
   sodipodi:docname="play.svg"
   inkscape:version="0.92.3 (2405546, 2018-03-11)">
  <metadata
     id="metadata10">
    <rdf:RDF>
      <cc:Work
         rdf:about="">
        <dc:format>image/svg+xml</dc:format>
        <dc:type
           rdf:resource="http://purl.org/dc/dcmitype/StillImage" />
      </cc:Work>
    </rdf:RDF>
  </metadata>
  <defs
     id="defs8" />
  <sodipodi:namedview
     pagecolor="#ffffff"
     bordercolor="#666666"
     borderopacity="1"
     objecttolerance="10"
     gridtolerance="10"
     guidetolerance="10"
     inkscape:pageopacity="0"
     inkscape:pageshadow="2"
     inkscape:window-width="1863"
     inkscape:window-height="1025"
     id="namedview6"
     showgrid="false"
     inkscape:zoom="27.812867"
     inkscape:cx="-3.7362166"
     inkscape:cy="12"
     inkscape:window-x="57"
     inkscape:window-y="27"
     inkscape:window-maximized="1"
     inkscape:current-layer="svg4" />
  <path
     style="fill:#000000;fill-opacity:0.53281856;stroke-width:1.2000016"
     d="M 12,0 C 5.3757866,0 0,5.3773137 0,12.001116 0,18.624917 5.3757866,24 12,24 18.624215,24 24,18.624917 24,12.001116 24,5.3773137 18.624215,0 12,0 Z m -1.757714,7.1993308 c 0.108566,0.0075 0.218711,0.045438 0.317716,0.1204348 l 5.60457,4.1996084 c 0.32401,0.239994 0.32401,0.721257 0,0.961248 l -5.60457,4.199611 c -0.396015,0.29999 -0.9600017,0.01247 -0.9600017,-0.479508 V 7.8015052 c 0,-0.3689888 0.3165882,-0.6246737 0.6422857,-0.6021744 z"
     id="path2"
     inkscape:connector-curvature="0" />
  <path
     style="fill:#fefefe;fill-opacity:0.63921571;stroke:none;stroke-width:0.03595458;stroke-linecap:round;stroke-linejoin:miter;stroke-miterlimit:4;stroke-dasharray:none;stroke-opacity:1"
     d="M 9.9536275,16.724342 C 9.818451,16.664673 9.738074,16.57531 9.6673621,16.406073 c -0.048718,-0.116599 -0.055303,-0.642725 -0.055303,-4.418735 0,-4.2618417 4.262e-4,-4.2872556 0.07446,-4.4401895 0.1139853,-0.2354621 0.3736009,-0.3681669 0.6271889,-0.3205934 0.09088,0.01705 0.908353,0.6093352 2.939051,2.1294474 1.547231,1.1582055 2.867299,2.1565345 2.933483,2.2185105 0.06619,0.06198 0.136198,0.153131 0.155585,0.202569 0.05587,0.142483 0.04153,0.382212 -0.03023,0.505283 -0.0429,0.07358 -1.063846,0.860941 -2.924306,2.255258 -1.572114,1.178217 -2.898838,2.163473 -2.948276,2.189457 -0.114311,0.06008 -0.346029,0.05878 -0.4853865,-0.0027 z"
     id="path812"
     inkscape:connector-curvature="0" />
</svg>
