<?xml version="1.0" encoding="UTF-8" standalone="no"?>
<svg
   xmlns:dc="http://purl.org/dc/elements/1.1/"
   xmlns:cc="http://creativecommons.org/ns#"
   xmlns:rdf="http://www.w3.org/1999/02/22-rdf-syntax-ns#"
   xmlns:svg="http://www.w3.org/2000/svg"
   xmlns="http://www.w3.org/2000/svg"
   xmlns:sodipodi="http://sodipodi.sourceforge.net/DTD/sodipodi-0.dtd"
   xmlns:inkscape="http://www.inkscape.org/namespaces/inkscape"
   width="72"
   height="24"
   viewBox="0 0 72 24"
   version="1.1"
   id="svg6"
   sodipodi:docname="power.svg"
   inkscape:version="0.92.3 (2405546, 2018-03-11)">
  <metadata
     id="metadata12">
    <rdf:RDF>
      <cc:Work
         rdf:about="">
        <dc:format>image/svg+xml</dc:format>
        <dc:type
           rdf:resource="http://purl.org/dc/dcmitype/StillImage" />
        <dc:title />
      </cc:Work>
    </rdf:RDF>
  </metadata>
  <defs
     id="defs10" />
  <sodipodi:namedview
     pagecolor="#ffffff"
     bordercolor="#666666"
     borderopacity="1"
     objecttolerance="10"
     gridtolerance="10"
     guidetolerance="10"
     inkscape:pageopacity="0"
     inkscape:pageshadow="2"
     inkscape:window-width="1863"
     inkscape:window-height="1025"
     id="namedview8"
     showgrid="false"
     inkscape:zoom="9.8333333"
     inkscape:cx="12"
     inkscape:cy="12"
     inkscape:window-x="57"
     inkscape:window-y="27"
     inkscape:window-maximized="1"
     inkscape:current-layer="g955" />
  <path
     d="M 0,0 H 24 V 24 H 0 Z"
     id="path2"
     inkscape:connector-curvature="0"
     style="fill:none" />
  <path
     d="m 12,3 c -0.55,0 -1,0.45 -1,1 v 8 c 0,0.55 0.45,1 1,1 0.55,0 1,-0.45 1,-1 V 4 C 13,3.45 12.55,3 12,3 Z m 5.14,2.86 c -0.39,0.39 -0.38,1 -0.01,1.39 1.13,1.2 1.83,2.8 1.87,4.57 0.09,3.83 -3.08,7.13 -6.91,7.17 C 8.18,19.05 5,15.9 5,12 5,10.16 5.71,8.49 6.87,7.24 7.24,6.85 7.24,6.24 6.86,5.86 6.46,5.46 5.81,5.47 5.43,5.88 3.98,7.42 3.07,9.47 3,11.74 c -0.14,4.88 3.83,9.1 8.71,9.25 5.1,0.16 9.29,-3.93 9.29,-9 C 21,9.62 20.08,7.48 18.58,5.88 18.2,5.47 17.54,5.46 17.14,5.86 Z"
     id="path4"
     inkscape:connector-curvature="0" />
  <g
     id="g911"
     transform="translate(24)">
    <path
       id="path2-3"
       d="M 0,0 H 24 V 24 H 0 Z"
       inkscape:connector-curvature="0"
       style="fill:none" />
    <g
       style="display:inline"
       inkscape:label="background"
       id="layer1">
      <circle
         r="11"
         cy="12"
         cx="12"
         id="path822"
         style="fill:#f5f5f5;fill-opacity:1;stroke:none;stroke-width:1.0407455;stroke-linecap:round;stroke-linejoin:miter;stroke-miterlimit:4;stroke-dasharray:none;stroke-opacity:1" />
    </g>
    <g
       style="display:inline;fill:#4169e1;fill-opacity:1"
       inkscape:label="image"
       id="layer2">
      <path
         style="fill:#005aad;fill-opacity:1"
         id="path4-5"
         d="m 12,3 c -0.55,0 -1,0.45 -1,1 v 8 c 0,0.55 0.45,1 1,1 0.55,0 1,-0.45 1,-1 V 4 C 13,3.45 12.55,3 12,3 Z m 5.14,2.86 c -0.39,0.39 -0.38,1 -0.01,1.39 1.13,1.2 1.83,2.8 1.87,4.57 0.09,3.83 -3.08,7.13 -6.91,7.17 C 8.18,19.05 5,15.9 5,12 5,10.16 5.71,8.49 6.87,7.24 7.24,6.85 7.24,6.24 6.86,5.86 6.46,5.46 5.81,5.47 5.43,5.88 3.98,7.42 3.07,9.47 3,11.74 c -0.14,4.88 3.83,9.1 8.71,9.25 5.1,0.16 9.29,-3.93 9.29,-9 C 21,9.62 20.08,7.48 18.58,5.88 18.2,5.47 17.54,5.46 17.14,5.86 Z"
         inkscape:connector-curvature="0" />
    </g>
  </g>
  <g
     id="g955"
     transform="translate(48)">
    <path
       id="path2-2"
       d="M 0,0 H 24 V 24 H 0 Z"
       inkscape:connector-curvature="0"
       style="fill:none" />
    <g
       style="display:inline;fill:#005aad;fill-opacity:1"
       inkscape:label="background"
       id="layer1-7">
      <circle
         r="11"
         cy="12"
         cx="12"
         id="path822-0"
         style="fill:#005aad;fill-opacity:1;stroke:none;stroke-width:1.0407455;stroke-linecap:round;stroke-linejoin:miter;stroke-miterlimit:4;stroke-dasharray:none;stroke-opacity:1" />
    </g>
    <g
       style="display:inline"
       inkscape:label="image"
       id="layer2-9">
      <path
         style="fill:#f5f5f5;fill-opacity:1"
         id="path4-3"
         d="m 12,3 c -0.55,0 -1,0.45 -1,1 v 8 c 0,0.55 0.45,1 1,1 0.55,0 1,-0.45 1,-1 V 4 C 13,3.45 12.55,3 12,3 Z m 5.14,2.86 c -0.39,0.39 -0.38,1 -0.01,1.39 1.13,1.2 1.83,2.8 1.87,4.57 0.09,3.83 -3.08,7.13 -6.91,7.17 C 8.18,19.05 5,15.9 5,12 5,10.16 5.71,8.49 6.87,7.24 7.24,6.85 7.24,6.24 6.86,5.86 6.46,5.46 5.81,5.47 5.43,5.88 3.98,7.42 3.07,9.47 3,11.74 c -0.14,4.88 3.83,9.1 8.71,9.25 5.1,0.16 9.29,-3.93 9.29,-9 C 21,9.62 20.08,7.48 18.58,5.88 18.2,5.47 17.54,5.46 17.14,5.86 Z"
         inkscape:connector-curvature="0" />
    </g>
  </g>
</svg>
