<?xml version="1.0" encoding="UTF-8" standalone="no"?>
<svg
   xmlns:dc="http://purl.org/dc/elements/1.1/"
   xmlns:cc="http://creativecommons.org/ns#"
   xmlns:rdf="http://www.w3.org/1999/02/22-rdf-syntax-ns#"
   xmlns:svg="http://www.w3.org/2000/svg"
   xmlns="http://www.w3.org/2000/svg"
   xmlns:sodipodi="http://sodipodi.sourceforge.net/DTD/sodipodi-0.dtd"
   xmlns:inkscape="http://www.inkscape.org/namespaces/inkscape"
   width="24"
   height="24"
   viewBox="0 0 24 24"
   version="1.1"
   id="svg6"
   sodipodi:docname="sucker-found.svg"
   inkscape:version="0.92.3 (2405546, 2018-03-11)">
  <metadata
     id="metadata12">
    <rdf:RDF>
      <cc:Work
         rdf:about="">
        <dc:format>image/svg+xml</dc:format>
        <dc:type
           rdf:resource="http://purl.org/dc/dcmitype/StillImage" />
        <dc:title />
      </cc:Work>
    </rdf:RDF>
  </metadata>
  <defs
     id="defs10" />
  <sodipodi:namedview
     pagecolor="#ffffff"
     bordercolor="#666666"
     borderopacity="1"
     objecttolerance="10"
     gridtolerance="10"
     guidetolerance="10"
     inkscape:pageopacity="0"
     inkscape:pageshadow="2"
     inkscape:window-width="1863"
     inkscape:window-height="1025"
     id="namedview8"
     showgrid="false"
     inkscape:zoom="35.166667"
     inkscape:cx="12"
     inkscape:cy="12"
     inkscape:window-x="57"
     inkscape:window-y="27"
     inkscape:window-maximized="1"
     inkscape:current-layer="svg6" />
  <path
     fill="none"
     d="M0 0h24v24H0V0z"
     id="path2" />
  <path
     d="M 21.366509,0.0521327 H 2.6865087 c -1.4799999,0 -2.65333334,1.2 -2.65333334,2.6666667 V 21.385467 c 0,1.466666 1.17333344,2.666666 2.65333334,2.666666 H 21.366509 c 1.466666,0 2.666666,-1.2 2.666666,-2.666666 V 2.7187994 c 0,-1.4666667 -1.2,-2.6666667 -2.666666,-2.6666667 z m 0,16.0000003 h -4.173334 c -0.626666,0 -1.133333,0.453333 -1.306667,1.066666 -0.466667,1.693334 -2.026667,2.933334 -3.853333,2.933334 -1.826666,0 -3.3866658,-1.24 -3.8533327,-2.933334 C 8.0065089,16.505466 7.499842,16.052133 6.8731754,16.052133 H 2.6865087 V 4.0521328 c 0,-0.7333334 0.6,-1.3333334 1.3333333,-1.3333334 h 16.013333 c 0.733334,0 1.333334,0.6 1.333334,1.3333334 z M 17.366508,9.3854662 H 14.699841 V 5.3854661 H 9.3665094 V 9.3854662 H 6.6998421 l 4.8666659,4.8666668 c 0.266667,0.266666 0.680001,0.266666 0.946667,0 z"
     id="path4"
     inkscape:connector-curvature="0"
     style="stroke-width:1.33333337;fill:#000000;fill-opacity:1" />
  <path
     style="fill:#ffd700;fill-opacity:1;stroke:none;stroke-width:0.02843602;stroke-linecap:round;stroke-linejoin:miter;stroke-miterlimit:4;stroke-dasharray:none;stroke-opacity:1"
     d="M 11.567772,20.012747 C 10.178989,19.81964 9.0381198,19.000563 8.4425649,17.769031 8.380215,17.6401 8.2761656,17.375464 8.211344,17.180951 8.0413413,16.670818 7.8671271,16.428776 7.5200954,16.220575 7.2061666,16.032234 7.206079,16.032228 4.8299316,16.032228 H 2.6957346 V 9.9909732 c 0,-4.3838562 0.00882,-6.0825952 0.03214,-6.191943 0.099348,-0.4657899 0.4104055,-0.8223819 0.8707395,-0.9982044 l 0.1634709,-0.062437 8.14692,-0.00808 c 5.851142,-0.00581 8.199005,7.703e-4 8.331753,0.023338 0.511882,0.087022 0.910154,0.448081 1.06318,0.9638413 0.04152,0.139935 0.04583,0.7258649 0.04583,6.2345971 v 6.0801468 h -2.114602 c -1.319413,0 -2.172155,0.01091 -2.26765,0.02902 -0.385261,0.07306 -0.761625,0.354359 -0.943463,0.705146 -0.05417,0.1045 -0.140138,0.317962 -0.191038,0.47436 -0.458311,1.408212 -1.586759,2.422815 -3.022913,2.717941 -0.328437,0.06749 -0.950878,0.09457 -1.242325,0.05405 z m 0.805635,-5.639715 c 0.06994,-0.04099 1.177885,-1.132657 2.564064,-2.526392 L 17.378387,9.3924172 16.051279,9.385027 14.72417,9.3776367 V 7.3731786 5.3687206 H 12.036967 9.3497629 V 7.3734599 9.3781992 H 8.0274881 c -0.7272512,0 -1.3222749,0.00984 -1.3222749,0.021861 0,0.012023 1.1164692,1.1365548 2.4810426,2.4989598 2.1248242,2.121448 2.4994152,2.483639 2.6090052,2.522641 0.1792,0.06378 0.421052,0.04344 0.578146,-0.04863 z"
     id="path816"
     inkscape:connector-curvature="0" />
</svg>
